<mxfile host="app.diagrams.net" agent="Mozilla/5.0 (Windows NT 10.0; Win64; x64; rv:139.0) Gecko/20100101 Firefox/139.0" version="27.1.4">
  <diagram name="PÃ¡gina-1" id="llMkPCR6KzkiEzbPFk29">
    <mxGraphModel dx="815" dy="1603" grid="1" gridSize="10" guides="1" tooltips="1" connect="1" arrows="1" fold="1" page="1" pageScale="1" pageWidth="827" pageHeight="1169" math="0" shadow="0">
      <root>
        <mxCell id="0" />
        <mxCell id="1" parent="0" />
        <mxCell id="ok9ne8Ob_Rfm6mIprDGW-8" value="-" style="text;html=1;align=center;verticalAlign=middle;resizable=0;points=[];autosize=1;strokeColor=none;fillColor=none;" vertex="1" parent="1">
          <mxGeometry x="133" y="-957.38" width="30" height="30" as="geometry" />
        </mxCell>
        <mxCell id="ok9ne8Ob_Rfm6mIprDGW-9" value="+" style="text;html=1;align=center;verticalAlign=middle;resizable=0;points=[];autosize=1;strokeColor=none;fillColor=none;" vertex="1" parent="1">
          <mxGeometry x="95" y="-987.75" width="30" height="30" as="geometry" />
        </mxCell>
        <mxCell id="ok9ne8Ob_Rfm6mIprDGW-22" value="+" style="text;html=1;align=center;verticalAlign=middle;resizable=0;points=[];autosize=1;strokeColor=none;fillColor=none;" vertex="1" parent="1">
          <mxGeometry x="295" y="-990" width="30" height="30" as="geometry" />
        </mxCell>
        <mxCell id="ok9ne8Ob_Rfm6mIprDGW-48" value="+" style="text;html=1;align=center;verticalAlign=middle;resizable=0;points=[];autosize=1;strokeColor=none;fillColor=none;" vertex="1" parent="1">
          <mxGeometry x="326" y="-959" width="30" height="30" as="geometry" />
        </mxCell>
        <mxCell id="P7K3E67eyiGJ60WCRujD-12" value="" style="rounded=0;whiteSpace=wrap;html=1;fillColor=none;dashed=1;" parent="1" vertex="1">
          <mxGeometry x="375" y="-999" width="275" height="110" as="geometry" />
        </mxCell>
        <mxCell id="ok9ne8Ob_Rfm6mIprDGW-45" style="edgeStyle=orthogonalEdgeStyle;rounded=0;orthogonalLoop=1;jettySize=auto;html=1;entryX=1;entryY=0.5;entryDx=0;entryDy=0;" edge="1" parent="1" source="deyCsBhz8o9d7izzBs-o-30" target="deyCsBhz8o9d7izzBs-o-31">
          <mxGeometry relative="1" as="geometry">
            <Array as="points">
              <mxPoint x="580" y="-914" />
              <mxPoint x="580" y="-963" />
            </Array>
          </mxGeometry>
        </mxCell>
        <mxCell id="deyCsBhz8o9d7izzBs-o-30" value="A" style="whiteSpace=wrap;strokeWidth=1;" parent="1" vertex="1">
          <mxGeometry x="515" y="-929" width="30" height="30" as="geometry" />
        </mxCell>
        <mxCell id="ok9ne8Ob_Rfm6mIprDGW-44" style="edgeStyle=orthogonalEdgeStyle;rounded=0;orthogonalLoop=1;jettySize=auto;html=1;entryX=0;entryY=0.5;entryDx=0;entryDy=0;" edge="1" parent="1" source="deyCsBhz8o9d7izzBs-o-31" target="deyCsBhz8o9d7izzBs-o-46">
          <mxGeometry relative="1" as="geometry" />
        </mxCell>
        <mxCell id="deyCsBhz8o9d7izzBs-o-31" value="Integrador" style="whiteSpace=wrap;strokeWidth=1;" parent="1" vertex="1">
          <mxGeometry x="500" y="-978.3799999999999" width="60" height="30" as="geometry" />
        </mxCell>
        <mxCell id="deyCsBhz8o9d7izzBs-o-36" style="edgeStyle=orthogonalEdgeStyle;rounded=0;orthogonalLoop=1;jettySize=auto;html=1;entryX=0;entryY=0.5;entryDx=0;entryDy=0;" parent="1" source="deyCsBhz8o9d7izzBs-o-33" target="deyCsBhz8o9d7izzBs-o-31" edge="1">
          <mxGeometry relative="1" as="geometry" />
        </mxCell>
        <mxCell id="deyCsBhz8o9d7izzBs-o-38" value="X&#39;" style="edgeLabel;html=1;align=center;verticalAlign=middle;resizable=0;points=[];" parent="deyCsBhz8o9d7izzBs-o-36" vertex="1" connectable="0">
          <mxGeometry x="-0.1691" y="2" relative="1" as="geometry">
            <mxPoint y="-13" as="offset" />
          </mxGeometry>
        </mxCell>
        <mxCell id="deyCsBhz8o9d7izzBs-o-33" value="" style="verticalLabelPosition=bottom;verticalAlign=top;html=1;shape=mxgraph.flowchart.summing_function;" parent="1" vertex="1">
          <mxGeometry x="450" y="-977.75" width="30" height="28.75" as="geometry" />
        </mxCell>
        <mxCell id="deyCsBhz8o9d7izzBs-o-37" style="edgeStyle=orthogonalEdgeStyle;rounded=0;orthogonalLoop=1;jettySize=auto;html=1;entryX=0.5;entryY=1;entryDx=0;entryDy=0;entryPerimeter=0;" parent="1" source="deyCsBhz8o9d7izzBs-o-30" target="deyCsBhz8o9d7izzBs-o-33" edge="1">
          <mxGeometry relative="1" as="geometry" />
        </mxCell>
        <mxCell id="P7K3E67eyiGJ60WCRujD-1" style="edgeStyle=orthogonalEdgeStyle;rounded=0;orthogonalLoop=1;jettySize=auto;html=1;entryX=1;entryY=0.5;entryDx=0;entryDy=0;" parent="1" source="deyCsBhz8o9d7izzBs-o-46" target="P7K3E67eyiGJ60WCRujD-3" edge="1">
          <mxGeometry relative="1" as="geometry">
            <mxPoint x="680" y="-962.75" as="targetPoint" />
            <Array as="points">
              <mxPoint x="680" y="-963" />
              <mxPoint x="680" y="-830" />
            </Array>
          </mxGeometry>
        </mxCell>
        <mxCell id="deyCsBhz8o9d7izzBs-o-46" value="C" style="whiteSpace=wrap;strokeWidth=1;" parent="1" vertex="1">
          <mxGeometry x="610" y="-978.38" width="30" height="30" as="geometry" />
        </mxCell>
        <mxCell id="deyCsBhz8o9d7izzBs-o-55" value="" style="edgeStyle=orthogonalEdgeStyle;rounded=0;orthogonalLoop=1;jettySize=auto;html=1;" parent="1" source="deyCsBhz8o9d7izzBs-o-54" target="deyCsBhz8o9d7izzBs-o-33" edge="1">
          <mxGeometry relative="1" as="geometry" />
        </mxCell>
        <mxCell id="deyCsBhz8o9d7izzBs-o-54" value="B" style="whiteSpace=wrap;strokeWidth=1;" parent="1" vertex="1">
          <mxGeometry x="390" y="-978.3699999999999" width="30" height="30" as="geometry" />
        </mxCell>
        <mxCell id="deyCsBhz8o9d7izzBs-o-59" value="+" style="text;html=1;align=center;verticalAlign=middle;resizable=0;points=[];autosize=1;strokeColor=none;fillColor=none;" parent="1" vertex="1">
          <mxGeometry x="458" y="-959" width="30" height="30" as="geometry" />
        </mxCell>
        <mxCell id="deyCsBhz8o9d7izzBs-o-60" value="+" style="text;html=1;align=center;verticalAlign=middle;resizable=0;points=[];autosize=1;strokeColor=none;fillColor=none;" parent="1" vertex="1">
          <mxGeometry x="428" y="-989" width="30" height="30" as="geometry" />
        </mxCell>
        <mxCell id="deyCsBhz8o9d7izzBs-o-71" value="Y&amp;nbsp;" style="text;html=1;align=center;verticalAlign=middle;resizable=0;points=[];autosize=1;strokeColor=none;fillColor=none;" parent="1" vertex="1">
          <mxGeometry x="650" y="-989" width="30" height="30" as="geometry" />
        </mxCell>
        <mxCell id="P7K3E67eyiGJ60WCRujD-2" value="K" style="whiteSpace=wrap;strokeWidth=1;" parent="1" vertex="1">
          <mxGeometry x="315" y="-929" width="30" height="30" as="geometry" />
        </mxCell>
        <mxCell id="P7K3E67eyiGJ60WCRujD-8" value="" style="edgeStyle=orthogonalEdgeStyle;rounded=0;orthogonalLoop=1;jettySize=auto;html=1;" parent="1" source="P7K3E67eyiGJ60WCRujD-3" target="P7K3E67eyiGJ60WCRujD-2" edge="1">
          <mxGeometry relative="1" as="geometry">
            <Array as="points">
              <mxPoint x="330" y="-840" />
            </Array>
          </mxGeometry>
        </mxCell>
        <mxCell id="ok9ne8Ob_Rfm6mIprDGW-36" style="edgeStyle=orthogonalEdgeStyle;rounded=0;orthogonalLoop=1;jettySize=auto;html=1;endArrow=none;startFill=1;endFill=1;startArrow=classic;exitX=0.5;exitY=0;exitDx=0;exitDy=0;" edge="1" parent="1" source="P7K3E67eyiGJ60WCRujD-3">
          <mxGeometry relative="1" as="geometry">
            <mxPoint x="360" y="-963" as="targetPoint" />
            <mxPoint x="530" y="-848" as="sourcePoint" />
            <Array as="points">
              <mxPoint x="530" y="-873" />
              <mxPoint x="360" y="-873" />
            </Array>
          </mxGeometry>
        </mxCell>
        <mxCell id="P7K3E67eyiGJ60WCRujD-3" value="Observador" style="whiteSpace=wrap;strokeWidth=1;" parent="1" vertex="1">
          <mxGeometry x="490" y="-845" width="80" height="30" as="geometry" />
        </mxCell>
        <mxCell id="P7K3E67eyiGJ60WCRujD-11" value="X est." style="text;html=1;align=center;verticalAlign=middle;resizable=0;points=[];autosize=1;strokeColor=none;fillColor=none;" parent="1" vertex="1">
          <mxGeometry x="406" y="-861.62" width="50" height="30" as="geometry" />
        </mxCell>
        <mxCell id="P7K3E67eyiGJ60WCRujD-13" value="Planta" style="text;html=1;align=center;verticalAlign=middle;resizable=0;points=[];autosize=1;strokeColor=none;fillColor=none;" parent="1" vertex="1">
          <mxGeometry x="465" y="-1025.62" width="60" height="30" as="geometry" />
        </mxCell>
        <mxCell id="ok9ne8Ob_Rfm6mIprDGW-1" value="H" style="whiteSpace=wrap;strokeWidth=1;" vertex="1" parent="1">
          <mxGeometry x="261" y="-978.37" width="30" height="30" as="geometry" />
        </mxCell>
        <mxCell id="ok9ne8Ob_Rfm6mIprDGW-3" value="Ref." style="strokeWidth=1;html=1;shape=mxgraph.flowchart.terminator;whiteSpace=wrap;" vertex="1" parent="1">
          <mxGeometry x="48" y="-973.87" width="40" height="21" as="geometry" />
        </mxCell>
        <mxCell id="ok9ne8Ob_Rfm6mIprDGW-15" value="" style="edgeStyle=orthogonalEdgeStyle;rounded=0;orthogonalLoop=1;jettySize=auto;html=1;" edge="1" parent="1" source="ok9ne8Ob_Rfm6mIprDGW-7" target="ok9ne8Ob_Rfm6mIprDGW-10">
          <mxGeometry relative="1" as="geometry" />
        </mxCell>
        <mxCell id="ok9ne8Ob_Rfm6mIprDGW-46" value="u" style="text;html=1;align=center;verticalAlign=middle;resizable=0;points=[];autosize=1;strokeColor=none;fillColor=none;" vertex="1" parent="1">
          <mxGeometry x="344" y="-987.38" width="30" height="30" as="geometry" />
        </mxCell>
        <mxCell id="ok9ne8Ob_Rfm6mIprDGW-7" value="" style="verticalLabelPosition=bottom;verticalAlign=top;html=1;shape=mxgraph.flowchart.summing_function;" vertex="1" parent="1">
          <mxGeometry x="121" y="-978.37" width="30" height="30" as="geometry" />
        </mxCell>
        <mxCell id="ok9ne8Ob_Rfm6mIprDGW-51" style="edgeStyle=orthogonalEdgeStyle;rounded=0;orthogonalLoop=1;jettySize=auto;html=1;entryX=0;entryY=0.5;entryDx=0;entryDy=0;" edge="1" parent="1" source="ok9ne8Ob_Rfm6mIprDGW-10" target="ok9ne8Ob_Rfm6mIprDGW-1">
          <mxGeometry relative="1" as="geometry" />
        </mxCell>
        <mxCell id="ok9ne8Ob_Rfm6mIprDGW-10" value="Integrador" style="whiteSpace=wrap;strokeWidth=1;" vertex="1" parent="1">
          <mxGeometry x="170" y="-978.37" width="60" height="30" as="geometry" />
        </mxCell>
        <mxCell id="ok9ne8Ob_Rfm6mIprDGW-17" style="edgeStyle=orthogonalEdgeStyle;rounded=0;orthogonalLoop=1;jettySize=auto;html=1;entryX=0;entryY=0.5;entryDx=0;entryDy=0;entryPerimeter=0;" edge="1" parent="1" source="ok9ne8Ob_Rfm6mIprDGW-3" target="ok9ne8Ob_Rfm6mIprDGW-7">
          <mxGeometry relative="1" as="geometry" />
        </mxCell>
        <mxCell id="ok9ne8Ob_Rfm6mIprDGW-37" style="edgeStyle=orthogonalEdgeStyle;rounded=0;orthogonalLoop=1;jettySize=auto;html=1;entryX=0;entryY=0.5;entryDx=0;entryDy=0;" edge="1" parent="1" source="ok9ne8Ob_Rfm6mIprDGW-20" target="deyCsBhz8o9d7izzBs-o-54">
          <mxGeometry relative="1" as="geometry" />
        </mxCell>
        <mxCell id="ok9ne8Ob_Rfm6mIprDGW-20" value="" style="verticalLabelPosition=bottom;verticalAlign=top;html=1;shape=mxgraph.flowchart.summing_function;" vertex="1" parent="1">
          <mxGeometry x="315" y="-978.37" width="30" height="30" as="geometry" />
        </mxCell>
        <mxCell id="ok9ne8Ob_Rfm6mIprDGW-24" style="edgeStyle=orthogonalEdgeStyle;rounded=0;orthogonalLoop=1;jettySize=auto;html=1;entryX=0.5;entryY=1;entryDx=0;entryDy=0;entryPerimeter=0;" edge="1" parent="1" source="P7K3E67eyiGJ60WCRujD-2" target="ok9ne8Ob_Rfm6mIprDGW-20">
          <mxGeometry relative="1" as="geometry" />
        </mxCell>
        <mxCell id="ok9ne8Ob_Rfm6mIprDGW-26" style="edgeStyle=orthogonalEdgeStyle;rounded=0;orthogonalLoop=1;jettySize=auto;html=1;entryX=0;entryY=0.5;entryDx=0;entryDy=0;entryPerimeter=0;" edge="1" parent="1" source="ok9ne8Ob_Rfm6mIprDGW-1" target="ok9ne8Ob_Rfm6mIprDGW-20">
          <mxGeometry relative="1" as="geometry" />
        </mxCell>
        <mxCell id="ok9ne8Ob_Rfm6mIprDGW-43" value="X" style="text;html=1;align=center;verticalAlign=middle;resizable=0;points=[];autosize=1;strokeColor=none;fillColor=none;" vertex="1" parent="1">
          <mxGeometry x="562" y="-987.87" width="30" height="30" as="geometry" />
        </mxCell>
        <mxCell id="ok9ne8Ob_Rfm6mIprDGW-53" value="X int." style="text;html=1;align=center;verticalAlign=middle;resizable=0;points=[];autosize=1;strokeColor=none;fillColor=none;" vertex="1" parent="1">
          <mxGeometry x="175" y="-845" width="50" height="30" as="geometry" />
        </mxCell>
        <mxCell id="ok9ne8Ob_Rfm6mIprDGW-57" style="edgeStyle=orthogonalEdgeStyle;rounded=0;orthogonalLoop=1;jettySize=auto;html=1;entryX=0.5;entryY=1;entryDx=0;entryDy=0;entryPerimeter=0;" edge="1" parent="1" source="P7K3E67eyiGJ60WCRujD-3" target="ok9ne8Ob_Rfm6mIprDGW-7">
          <mxGeometry relative="1" as="geometry">
            <Array as="points">
              <mxPoint x="136" y="-820" />
            </Array>
          </mxGeometry>
        </mxCell>
      </root>
    </mxGraphModel>
  </diagram>
</mxfile>
